<?xml version="1.0" encoding="utf-8"?>
<!-- Generator: Adobe Illustrator 19.2.1, SVG Export Plug-In . SVG Version: 6.00 Build 0)  -->
<svg version="1.1" id="layer" xmlns="http://www.w3.org/2000/svg" xmlns:xlink="http://www.w3.org/1999/xlink" x="0px" y="0px"
	 viewBox="0 0 652 652" style="enable-background:new 0 0 652 652;" xml:space="preserve">
<style type="text/css">
	.st0{fill:#FFE500;}
	.st1{fill:#7A003A;}
	.st2{fill:#A3C5E9;}
	.st3{fill:#FFFFFF;}
</style>
<path class="st0" d="M218.2,213.1c8.3-0.7,13.5-9.2,10.3-16.9c-2-4.8-7.1-7.9-12.3-7.5c-8.3,0.7-13.5,9.2-10.3,16.9
	C208,210.4,213,213.5,218.2,213.1"/>
<g>
	<path class="st1" d="M143.7,72.2v378.4c0,58.1,68.5,77.1,118.5,91c10,2.8,19.5,5.4,27.6,8.1c0.1,0,7.8,2.7,14.2,6.9
		c5.8,3.8,11.8,10.3,11.9,10.4l4.7,5.2l4.8-5.2c0.1-0.1,6-6.6,11.9-10.4c6.5-4.2,14.1-6.9,14.2-6.9c8.2-2.7,17.7-5.3,27.7-8.1
		c50-13.9,118.5-32.9,118.5-91V72.2H143.7z"/>
	<path class="st2" d="M484.7,450.6c0,48.3-60.5,65.1-109.1,78.6c-10.2,2.8-19.8,5.5-28.3,8.3c-0.4,0.1-9.3,3.2-17.2,8.3
		c-3.5,2.3-6.9,5.3-9.5,7.7c-2.6-2.4-6-5.4-9.5-7.7c-7.9-5.2-16.8-8.2-17.2-8.3c-8.5-2.8-18.1-5.5-28.3-8.3
		c-48.6-13.5-109.1-30.3-109.1-78.6V85.1h328.1V450.6z"/>
	<polygon class="st3" points="197.3,229.7 207.7,224.1 218.2,229.7 216.2,217.8 224.6,209.5 212.9,207.7 207.7,197 202.5,207.7 
		190.8,209.5 199.3,217.8 	"/>
	<path class="st1" d="M320.7,103.5c-3.2,0.2-6.5,0.3-10.3,0.3c-4.2,0-8.4-0.1-13.6-0.3c-1.3,0.6-1.3,2.9-0.4,3.8l3.5,0.8
		c2.7,0.7,3.5,1.1,3.5,1.9c0,0.7-0.3,1.9-1.1,4c-1.3,3.8-6.1,16.2-8.9,23.1l-4.2,10.4c-1.3,3.3-3.1,7.1-4,9l-3.7-9.3l-9.7-24.9
		c-2.7-6.6-4.4-11.3-4.4-12.2c0-1,0.8-1.7,2.8-2.1l3.3-0.7c0.7-1,0.8-3.1-0.1-3.8c-6.8,0.2-11.5,0.3-16.6,0.3
		c-5.8,0-9.4-0.2-15.1-0.3c-1,0.6-1.3,2.6-0.4,3.8l4.4,1.1c3.5,0.9,4.1,1.1,8.3,11.7l17.9,45.1c1.5,3.8,3.4,9.6,4.6,12.6
		c0.7,0.6,1.7,0.9,3,0.9c1.7,0,3-0.3,3.9-0.9c2.6-6.2,5.4-14.9,11.1-28.3l8.1-19.1c3.8-9,6.5-15.2,9-18.8c1.4-2.3,3.3-3.1,6.4-3.7
		l2.9-0.6C321.7,106.6,321.6,104,320.7,103.5"/>
	<path class="st1" d="M369.6,103.9h-24.8c-5.3,0-10.9-0.1-15.6-0.3c-1.2,0.4-1.2,3.2-0.2,3.9l2.2,0.3c5,0.8,5.7,1.8,5.7,12.1V161
		c0,10.3-0.7,11.1-5.7,11.8l-3.6,0.6c-0.9,0.7-0.9,3.2,0,3.9c6.6-0.2,12.2-0.3,17.3-0.3c5.3,0,10.7,0.1,17.6,0.3
		c0.8-0.7,0.8-3.2,0-3.9l-4.1-0.6c-5-0.7-5.6-1.6-5.6-11.8V146c0-3,0.1-3.3,3.1-3.3h10c5.9,0,7.1,0.9,8.2,6.2l0.6,2.7
		c0.8,1,3.5,0.9,4.2-0.1c-0.2-3.3-0.3-7.4-0.3-11.5c0-4.2,0.1-8.3,0.3-11.8c-0.7-1-3.4-1.1-4.2-0.1l-0.6,2.7
		c-1.1,5.4-2.3,6.2-8.2,6.2h-10c-3,0-3.1-0.3-3.1-3.3v-20c0-4.3,0-4.5,3.7-4.5h10.2c5.6,0,9,1.3,10.9,3.7c1.1,1.4,2,4.1,3.2,8.6
		c1.3,0.9,3.8,0.8,4.2-0.4c-0.2-7.4-0.2-15.4-0.2-17.3C383,103.7,376.7,103.9,369.6,103.9"/>
	<path class="st1" d="M462.3,156.4c-3,7.5-9.2,17.2-22.6,17.2c-13.3,0-26-11.8-26-33.9s13.2-32.5,25.5-32.5
		c10.7,0,17.8,5.5,20.8,15.8c0.8,1,3.8,0.6,4.2-0.8c-1-6.4-1.3-15.3-1.3-17.3c-3.3-0.2-11.5-2.9-22.8-2.9c-11.5,0-22.8,3.3-30.7,9.9
		c-7.6,6.3-13.4,15.8-13.4,29.3c0,13.7,6.1,22.9,14.1,29c7.9,5.9,18.9,8.4,29.8,8.4c8.6,0,16.5-2.4,22.5-4.1
		c1.6-2.6,3.4-9.2,4.2-17.4C465.8,155.9,463.1,155.6,462.3,156.4"/>
	<path class="st1" d="M212.6,146h-10.4c-2.8,0-3.3-0.3-2.3-3.3l2.8-8.3c1.7-5.1,3.9-11.1,4.8-13.6c1,2.3,3,8.3,4.5,13.1l2.9,9
		C215.7,145.7,215.1,146,212.6,146 M245.1,172.7c-4.1-0.7-5.1-3.2-7.4-9.9l-15.1-43.4c-2.8-7.9-4.1-12-5-15.2
		c-0.4-1.7-1.1-2.2-2.5-2.2c-0.2,0-3.7,4.5-8.3,6.2l-2.8,7.3c-0.4,1-0.8,2.2-1.3,3.4l-1.4,3.6c0,0,0,0.1,0,0.1l-10.1,27
		c-3,8-5.1,13.3-7,17.7c-1.9,4.3-4.1,5.2-6.7,5.5l-3,0.3c-0.8,0.9-0.9,3.2,0.3,3.9c5.1,0,7.6-0.3,11.4-0.3c4.6,0.1,8.6,0.1,12.5,0.3
		c1.1-0.6,0.9-3.1,0.2-3.9l-3.3-0.6c-3.1-0.6-4.5-1.2-4.5-1.9c0-0.9,0.1-1.8,0.8-4l4.3-12.8c0.7-2.1,1-2.2,3.7-2.2h13.2
		c3.9,0,4.8,0.2,5.3,2l3,9.5c1.3,4.1,2.1,6.8,2.1,7.5c0,0.7-0.4,1.4-3,1.9l-3.5,0.6c-1.2,0.9-1,3.2,0.2,3.9
		c5.1-0.2,9.4-0.3,14.9-0.3c5.8,0,11.7,0.1,17.1,0.3c1-0.7,0.8-3.3,0.1-3.9L245.1,172.7z"/>
	<path class="st0" d="M454.7,284c-2,0-3,0.3-3,0.3s13.1-12.8,13.1-32.9c0-9.1-2.2-12.6-2.5-12.6c-0.7,0-0.7,5.4-4.9,9.6
		c-3,3-7.8,3.4-10.5,6c2.6-5.5,0.7-13,0.4-13s-0.2,3.9-5.1,8.9c-3.1,3.1-10.5,5.4-16.4,11.4c2.5-5.8,0.3-12-0.2-12
		c-0.5,0,0,3.5-3.4,6.9c-3.2,3.2-9.3,4.8-13.9,9.3c-6.3,6.3-5.2,16-5.2,19.4c0,0.3,0,0.6,0,1c-0.9,0.6-1.8,1.3-2.7,2.1
		c-7.2,6.3-11,14.6-11,24c0,17.9,11.6,30,21.8,40.7c4.5,4.7,8.8,9.2,11.9,13.8c3.2,4.8,4.7,9.2,4.7,13.7c0,4.4-1.5,8.7-4.1,11.7
		c-2.9,3.4-6.9,5.1-12,5.1c-8.8,0-15.3-3.3-22.1-6.8c-3.5-1.8-7-3.7-10.8-5.1c-2-19.3-15.8-31-15.8-49.1c0-9.8,4.4-15.3,2.7-22.2
		c3.1,3.2,8.6,4.3,10.4,4.3c1.6,0,2.5-0.6,3.1-1c0.1-0.1,0.1-0.2,0-0.3c-0.9-0.7-4.4-3.5-4.4-8.7c0-6,2.2-10.5,2.2-16.5
		c0-5.9-3.3-9.5-3.9-10.1c2.7,2.7,7.4,4.3,9.8,4.3c2.1,0,3.2-0.3,3.8-0.8c0.1-0.1,0.1-0.3,0-0.4c-1.1-0.7-5.7-3.8-5.7-8.5
		c0-5.4,1.5-6.5,1.5-10.3s-1.8-6.6-1.8-6.6s2.6,1.5,5.5,1.5c3.4,0,5.3-0.8,6.5-1.9c0.1-0.1,0.1-0.4-0.1-0.4
		c-8.5-0.6-7.3-19.9-15.3-27c0,0,0.8,0.2,2.1,0.2c2.7,0,6.1-2.4,7.3-4.6c0.1-0.1,0-0.3-0.2-0.3c-15.3-0.8-20.2-34.7-54.7-27.9
		c1.8-2.6,5.1-4.7,6.3-5.4c0.2-0.1,0.1-0.3,0-0.4c-1.5-0.6-4.8-1.9-12.6-1.9c-7.9,0-15.2,4.2-19.3,9.6c1.9-3.7-0.4-8.5-2.5-10.8
		c-0.1-0.1-0.3-0.1-0.4,0.1c-0.2,1-1.1,3-2.4,4.3c-6.2,6.2-17.4,10.2-17.4,23.1c0,0-3.6,2.3-8.6,5.7s-7.6,8.7-7.6,10.3
		c-1.9,1-9.7,6.7-16,13c-0.1,0.1-0.2,0.4,0,0.5c0.7,1,1.2,2.3,1.4,3.1c0.1,0.3,0.5,0.4,0.7,0.2c0.8-0.8,2.5-2.3,3.3-2.5
		c-1.4,1.4-1.9,3.1-1.9,5.2c0,4.7,10.5,11.3,11.1,10.7c0.5-0.5-1.2-5.3,0.4-6.8c2.3-2.3,10.6-2.6,13.2-2.6c2.6,0,3.9,1,3.9,2.8
		c0,4.4-2.5,12.6-10.5,12.6c-3.2,0-5.3-3.1-5.9-2.6c-0.5,0.5-0.1,5.1,0.9,6.7c0,0-0.9,1-0.9,3.3c0,5.7,9.4,13,10.4,12.1
		c0.6-0.6-1.9-7.1-0.3-7.1c0.9,0,3.4,3.7,6.3,3.7c0.1,0,0.2,0,0.2-0.1c0.5-0.5-1.8-3.7-0.6-5c3.2-3.2,11.5-9.4,13.6-10.1
		c4.4-1.4,6.7,1.8,6.7,6.1c0,9.6-10.1,11.5-18.4,19.8c-8.3,8.3-9.9,20.1-20.4,20.1c-1.4,0,7.7-2.5,10.3-11.6
		c-27.3,0.2-31.9-15-53.7-17.9c0-0.3-0.2-0.7-0.5-0.9c-0.6-0.6-8.2-7.3-8.2-22.4c0-3-2.1-5.4-5.2-5.4c-1-2.1-3.6-6.4-9-6.4
		c-5.2,0-6.5,2.4-6.2,2.7s2.5-0.5,5.2,2.2c1.5,1.5,2.2,3.3,2.4,4.6c-0.6,0.8-1,1.7-1,2.8c0,0-2.7-0.5-5.3,1.9
		c-1.1-0.7-3-1.4-5.9-1.4c-7.5,0-9,6.8-8.7,7.1c0.3,0.3,1.6-1.2,3.9-1.2c2.6,0,5.4,2.1,6.8,3.4c-0.2,1.7,0.2,3.4,1.3,4.5
		c0,0-3.6,1.1-4.2,6.1c-0.2,0-0.3,0.1-0.5,0.1c-9.9,2.8-8,10.5-7.6,10.5c0.4,0,0.9-3.3,5.5-3.3c1.6,0,2.9,0.2,3.9,0.4
		c1.8,3.4,5,4.2,7.2,4.2c2.1,0,4-0.5,5.7-0.5c2.3,0,3.7,1.4,3.7,4.6c0,4.7-4.5,3.3-6.5,5.3c-1.4,1.4-1.6,2.6-1.6,4.5
		c0,0.1,0,0.2,0,0.2c-0.6,0.2-1.3,0.3-2,0.3c-3.1,0-4.9-2.8-5.3-2.4c-0.5,0.5,1.3,9.5,7.6,9.5c2.2,0,3.7-0.6,4.8-1.4
		c0.5,0.1,1.1,0.2,1.7,0.2c6.4,0,7.8-7.7,15.7-7.7c7.8,0,23.1,10.9,25.2,24.5c0,0.2,0.2,0.2,0.3,0.1c3.5-2.8,3.3-7.1,3.3-7.1
		c6.4,5.2,9.1,7.6,14.5,13c0,0-31.4,24.1-33,25.1c-1.4,0.8-2.1,1.2-3.8,1.2c-4.4,0-5.8-7.4-12.8-7.4c-1.4,0-2.3,0.4-3.2,1
		c-0.7-0.1-1.6-0.2-2.8-0.2c-8.3,0-9.8,11.1-9,11.1c0.8,0,1.4-2.9,5.3-2.9c0.5,0,1,0.1,1.6,0.2c0,2.1,0.8,4.1,2.2,5.2
		c0,0-2.3,0.8-3.5,3.5c-9.9,0.3-9.7,11.9-8.7,11.9c0.7,0,1.1-4.9,6.8-4.9c0.4,0,0.9,0.2,1.5,0.4c1,4.3,4,6.7,7.5,6.7
		c-0.9,1.6-0.7,4.2,0.2,6.5c-2.3,4.8,1.8,11.4,2.9,11.4c0.8,0-0.2-4.2,1.6-7c0.4,0.1,0.8,0.1,1.2,0.1c5.1,0,7.3-4.3,7.3-4.3
		s0.3,4.6,4.9,5c1,4.1,3.6,7.5,4.4,7.5c0.6,0-0.6-5.5,1.1-9.1c6.5-6.5,1.4-14.9,8.1-21.6c7.8-7.8,26.8-14.7,42.5-15.3
		c5.7,6.4,13.5,16,17.1,18.5c0,0-0.2,0.2-0.4,0.4c-9.7,9.7-27.6,1.2-37.1,10.6c-3.7,3.7-4.3,7.2-9.5,7.2c-1.8,0-3.5-0.9-4.2-1.6
		c-0.1-0.1-0.3-0.1-0.4,0.1c-0.3,1.1-0.6,4.9,2.3,7.7c3.3,3.3,7.3,2.7,8.4,2.1c-2.6,3.5-8.3,3.3-11.7,1.4c-0.2-0.1-0.4,0.1-0.3,0.2
		c2.6,10.1,13.1,8.2,13.1,8.2c2.2,10.8,12.9,15.3,12.9,22.6c0,2-0.8,4.3-2.6,6c-4.1,4.1-13,6.8-22.8,6.8c-15.7,0-16-11.2-24.6-11.2
		c-1.1,0-2.2,0.1-3.2,0.4c-1.2-1.4-3.9-3-7.3-3c-5.2,0-8.3,5.9-7.6,6.6c0.4,0.4,2-1.4,4.3-1.4c1.2,0,2.6,1,3.2,2.6
		c-0.4,0.5-0.8,1.1-1.1,1.7c-0.9-0.2-2-0.4-3.3-0.4c-9.9,0-9.7,11.4-8.7,11.4c0.6,0,1.9-4.2,6.7-3.7c-0.9,1.8-1.5,3.8-1.5,5.9
		c0,0.3,0,0.6,0,1c-2.2,1.3-4,3.8-4,6.6c0,4.1,0.8,6.2,1.4,6.2c0.7,0,1.4-4.8,5-6.3c1.6,2.2,4,3.9,6.7,4.6c-0.3,1.4-0.6,3.6-0.6,6.6
		c0,3.8,1.2,8.9,2,8.9c0.7,0,1.2-5.9,3.8-8.2c1.1,1,2.4,1.9,3.8,2.5c1.4,0.6,3,1,4.9,1c0.1,0,0.2,0,0.3,0
		c13.2-0.2,21.6-12.3,31.5-12.3c5.5,0,5.6,5.2,3.6,7.4c15,0,19.3-11.4,28.4-11.4c4.6,0,8.8,2.5,13,2.4c2.7,0,6.2-0.9,8.2-4.9
		c0.1-0.1,0-0.3-0.2-0.3c-7,0.1-9.9-3.2-10.5-5.3c12.5,5.1,16.2-2.8,16.9-4.8c0.1-0.2-0.1-0.3-0.3-0.3c-0.5,0.2-1.4,0.5-2.4,0.5
		c-6.8,0-14-6.8-14-16.3c0-8.9,6.2-14,12.1-15.6c4.7-13.2,11.2-15.9,8.7-24.1c0,0,0-0.1,0-0.1c0,0,0,0,0,0c0.7,0.9,2,4.5,2,6.4
		c0,8.7-8.4,13.7-8.4,27.5c0,15.6,12.1,15,12.1,25.4c0,4.2-1.6,6.5-2.2,7.3c-0.1,0.1,0,0.3,0.1,0.3c1.5,0.2,7.2,0.4,12.6-8.7
		c7.2,3.7,5.3,10,4.7,11.5c-0.1,0.1,0.1,0.3,0.2,0.3c9.4-0.3,12.5-13.1,12.5-13.1c8.3-0.9,14.9,2,14.9,5.5c0,9-16.8,25.9-29.2,25.9
		c-4.6,0-6.2-4.8-10.2-4.8c-2.9,0-4.3,1.4-5.2,3.2c-1.6-0.7-3.3-1.1-4.8-1.1c-3.9,0-7.4,2.2-8.6,7c-5.3,1.7-6.4,10-5.9,10.5
		c0.4,0.4,3-3.9,7.3-2.9c0.8,1.2,1.6,2.2,2.3,2.9c-0.9,0.5-1.8,1.1-2.8,2.1c-5.2,5.2-3.9,11-3.4,11.5c0.5,0.5,1.5-2,2.9-3.5
		c1.1-1.1,2.8-2.3,4.9-2.2c1.8,3.4,5.6,4.2,8.1,4.2c-0.3,3-0.3,8.1,0.5,8.9c0.6,0.6,2.9-4.4,6.5-6.9c1.9,1.2,4.2,2.3,6.6,2.3
		c6.9,0,13-3.2,18-8.2c7.2-7.2,12.2-18.8,18.3-18.8c3.9,0,3.1,3.5,3,3.9c9.9,0,5.7-12.1,24.5-30.9c2.3-2.3,5-4.3,5.3-6.6
		c0-0.2-0.2-0.3-0.3-0.2c-1.6,1.1-5.9,1.4-7.8-0.5c0,0,15.2-7.6,15.6-18.9c0-0.2-0.2-0.3-0.3-0.2c-4.1,3.2-11.7,2.5-11.7,2.5
		c3.5-2.9,6.2-11,2.5-18.6c-0.1-0.2-0.3-0.2-0.4,0c-3.5,8.4-10.7,11.2-17.3,11.2c-9.4,0-17.3-7.5-17.3-17.9c0-8.8,2.9-12.8,4-20.7
		c2,0.9,4.1,1.9,6.3,3c7.3,3.7,15.6,7.9,27,7.9c4.2,0,8.2-0.8,11.7-2.4c3.3-1.5,6.2-3.7,8.6-6.5c4.3-5,6.6-11.7,6.6-18.8
		c0-14.6-10-25-19.6-35.1c-4.8-5-9.7-10.1-13.2-15.6c-3.8-5.9-5.6-11.5-5.6-17.5c0-6.1,3.4-12.5,8.1-16.7c0,0,10.4,5.8,22.3,5.8
		c11.9,0,19-8.7,19-8.7c5.5-5.5,11.4-4.6,12-5.2C462.1,287.1,458.9,284,454.7,284 M284.9,232.3c-2,2-1.7,4.4-3.5,6.1
		c-0.7,0.7-1.7,1.3-3,1.3c-2.6,0-4.3-2.1-4.3-4.3c0-2.2,2.5-4.1,9.4-4.1c0.8,0,1.8,0,2.7,0.1C285.9,231.5,285.4,231.8,284.9,232.3"
		/>
</g>
</svg>
